<svg width="368" height="298" viewBox="0 0 368 298" fill="none" xmlns="http://www.w3.org/2000/svg">
<path d="M279.06 53.9185C254.734 29.5955 221.124 14.5483 183.997 14.5483V5.3465C183.997 3.48852 182.473 1.96194 180.616 2.00072C142.574 2.86097 108.087 18.1796 82.4386 42.6683C81.0953 43.9481 81.0953 46.0987 82.4068 47.4173L88.9186 53.9361C64.5921 78.2697 49.5484 111.879 49.5484 149.003H40.3431C38.4816 149.003 36.9586 150.526 37.0009 152.384C37.8611 190.426 53.1762 224.913 77.6649 250.561C78.9483 251.905 81.0989 251.905 82.4139 250.593L88.9362 244.085C113.27 268.411 146.879 283.459 183.997 283.459V292.66C183.997 294.518 185.523 296.041 187.381 295.999C225.426 295.142 259.909 279.824 285.558 255.339C286.905 254.055 286.901 251.905 285.59 250.59L279.078 244.067C303.405 219.734 318.448 186.128 318.448 149.007H327.657C329.515 149.007 331.042 147.48 330.999 145.622C330.139 107.581 314.824 73.0976 290.332 47.442C289.052 46.0987 286.901 46.0987 285.583 47.4138L279.06 53.922V53.9185Z" fill="#45DAA2"/>
<mask id="mask0_6865_608" style="mask-type:alpha" maskUnits="userSpaceOnUse" x="37" y="2" width="295" height="294">
<path d="M279.06 53.9185C254.734 29.5955 221.124 14.5483 183.997 14.5483V5.3465C183.997 3.48852 182.473 1.96194 180.616 2.00072C142.574 2.86097 108.087 18.1796 82.4386 42.6683C81.0953 43.9481 81.0953 46.0987 82.4068 47.4173L88.9186 53.9361C64.5921 78.2697 49.5484 111.879 49.5484 149.003H40.3431C38.4816 149.003 36.9586 150.526 37.0009 152.384C37.8611 190.426 53.1762 224.913 77.6649 250.561C78.9483 251.905 81.0989 251.905 82.4139 250.593L88.9362 244.085C113.27 268.411 146.879 283.459 183.997 283.459V292.66C183.997 294.518 185.523 296.041 187.381 295.999C225.426 295.142 259.909 279.824 285.558 255.339C286.905 254.055 286.901 251.905 285.59 250.59L279.078 244.067C303.405 219.734 318.448 186.128 318.448 149.007H327.657C329.515 149.007 331.042 147.48 330.999 145.622C330.139 107.581 314.824 73.0976 290.332 47.442C289.052 46.0987 286.901 46.0987 285.583 47.4138L279.06 53.922V53.9185Z" fill="#6EDBFF"/>
</mask>
<g mask="url(#mask0_6865_608)">
<path d="M125.292 56.8201L153.648 84.4042" stroke="black" stroke-width="1.2" stroke-linecap="round" stroke-linejoin="round"/>
<path d="M143.265 124.406C143.265 124.406 194.274 89.2873 216.693 69.6145C239.108 49.9417 253.006 28.8552 253.006 28.8552C253.006 28.8552 275.062 46.3315 278.034 49.635C281.006 52.9385 284.793 42.954 289.5 43.9588C294.21 44.9636 315.43 70.6158 315.43 70.6158C315.43 70.6158 288.244 108.964 243.184 130.607C198.12 152.251 162.036 154.218 162.036 154.218L143.265 124.409V124.406Z" fill="black" stroke="black" stroke-width="1.2" stroke-linecap="round" stroke-linejoin="round"/>
<path d="M116.471 136.012C116.471 136.012 125.849 132.624 131.867 130C138.643 127.046 143.265 124.402 143.265 124.402C143.265 124.402 145.903 128.058 147.048 132.32C148.198 136.583 147.048 138.141 147.048 138.141L121.883 147.65L116.471 136.008V136.012Z" fill="white" stroke="black" stroke-width="1.2" stroke-linecap="round" stroke-linejoin="round"/>
<path d="M81.7124 152.081C53.5888 170.464 52.4395 193.941 55.6442 194.67C58.9865 195.432 61.673 190.739 65.9354 185.328C70.1978 179.916 66.8274 188.582 66.8274 188.582C66.8274 188.582 59.2685 201.267 64.1797 202.416C69.0908 203.565 76.2054 193.426 76.2054 193.426L77.9012 194.3C77.9012 194.3 72.3731 201.253 73.8468 203.759C76.5968 208.445 86.0771 198.524 86.0771 198.524L87.8046 199.416C87.8046 199.416 85.996 203.153 87.6001 204.274C89.9164 205.896 93.6077 202.409 93.6077 202.409L121.731 146.874L81.7195 152.081H81.7124Z" fill="#45DAA2"/>
<path d="M73.8821 157.888C64.0845 171.61 58.8737 182.846 58.0628 187.94C57.2519 193.035 58.0628 194.279 58.0628 194.279C58.0628 194.279 56.4516 195.372 55.6478 194.667C54.8439 193.962 53.2327 193.75 54.6641 187.834C56.0955 181.915 61.257 170.679 65.8614 165.814C70.4658 160.948 73.8856 157.885 73.8856 157.885L73.8821 157.888Z" fill="white"/>
<path d="M69.6406 188.173C64.6589 197.787 66.4852 202.243 66.4852 202.243C66.4852 202.243 62.6317 204.302 62.5471 200.35C62.4625 196.398 66.8272 188.582 66.8272 188.582L69.6441 188.173H69.6406Z" fill="white"/>
<path d="M79.2903 194.907C76.706 198.943 76.5897 204.969 76.5897 204.969C76.5897 204.969 73.9631 205.459 73.5965 202.783C73.2298 200.103 77.8977 194.304 77.8977 194.304L79.2903 194.91V194.907Z" fill="white"/>
<path d="M90.3076 200.572C88.8656 203.576 88.989 204.7 88.989 204.7C88.989 204.7 87.3532 204.834 87.1416 203.742C86.9301 202.649 87.7974 199.412 87.7974 199.412L90.3076 200.572Z" fill="white"/>
<path d="M81.7124 152.081C53.5888 170.464 52.4395 193.941 55.6442 194.67C58.9865 195.432 61.673 190.739 65.9354 185.328C70.1978 179.916 66.8274 188.582 66.8274 188.582C66.8274 188.582 59.2685 201.267 64.1797 202.416C69.0908 203.565 76.2054 193.426 76.2054 193.426L77.9012 194.3C77.9012 194.3 72.3731 201.253 73.8468 203.759C76.5968 208.445 86.0771 198.524 86.0771 198.524L87.8046 199.416C87.8046 199.416 85.996 203.153 87.6001 204.274C89.9164 205.896 93.6077 202.409 93.6077 202.409L121.731 146.874L81.7195 152.081H81.7124Z" stroke="black" stroke-width="1.2" stroke-linecap="round" stroke-linejoin="round"/>
<path d="M123.216 149.913C123.318 144.664 116.471 136.012 116.471 136.012C116.471 136.012 95.0779 142.227 79.0894 144.145C56.3987 146.871 58.2743 151.686 61.881 153.654C65.4877 155.621 90.8578 156.873 90.8578 156.873" fill="#45DAA2"/>
<path d="M62.988 154.073C64.5463 149.952 83.454 144.173 96.1602 141.127C108.866 138.081 73.5189 145.023 66.5418 146.447C59.5646 147.872 58.6621 151.478 60.5412 152.684C62.4204 153.89 62.988 154.073 62.988 154.073V154.073Z" fill="white"/>
<path d="M123.216 149.913C123.318 144.664 116.471 136.012 116.471 136.012C116.471 136.012 95.0779 142.227 79.0894 144.145C56.3987 146.871 58.2743 151.686 61.881 153.654C65.4877 155.621 90.8578 156.873 90.8578 156.873" stroke="black" stroke-width="1.2" stroke-linecap="round" stroke-linejoin="round"/>
<path d="M302.583 147.135C311.03 142.411 331.267 129.687 331.267 129.687C331.267 129.687 334.754 144.004 332.205 147.847C329.656 151.69 320.158 152.152 320.158 152.152C320.158 152.152 320.158 170.552 320.853 175.368C321.547 180.18 317.687 205.353 317.687 205.353L302.58 147.135H302.583Z" fill="black" stroke="black" stroke-width="1.2" stroke-linecap="round" stroke-linejoin="round"/>
<path d="M286.185 222.339C286.185 222.339 304.381 214.897 309.169 212.845C313.956 210.793 316.297 207.98 317.687 205.353C319.076 202.726 320.93 177.864 313.671 163.966C306.412 150.068 302.579 147.135 302.579 147.135L270.895 163.243L286.182 222.343L286.185 222.339Z" fill="white" stroke="black" stroke-width="1.2" stroke-linecap="round" stroke-linejoin="round"/>
<path d="M180.866 242.569C174.844 246.74 176.692 254.553 187.074 251.062C195.666 248.175 219.802 233.921 223.73 231.915" fill="#45DAA2"/>
<path d="M184 242.879C180.404 248.901 182.407 251.937 182.407 251.937C182.407 251.937 178.782 251.729 178.144 250.209C177.506 248.69 177.971 245.844 177.971 245.844L184 242.879V242.879Z" fill="white"/>
<path d="M180.866 242.569C174.844 246.74 176.692 254.553 187.074 251.062C195.666 248.175 219.802 233.921 223.73 231.915" stroke="black" stroke-width="1.2" stroke-linecap="round" stroke-linejoin="round"/>
<path d="M231.673 224.345C216.386 230.522 189.824 247.974 190.752 254.15C191.679 260.327 200.634 256.156 222.101 247.201C243.565 238.246 286.189 222.339 286.189 222.339C286.189 222.339 290.36 209.83 286.806 192.379C283.256 174.927 271.671 164.89 271.671 164.89" fill="#45DAA2"/>
<path d="M219.277 230.416C198.162 247.046 195.966 256.957 195.966 256.957C195.966 256.957 189.003 258.473 190.727 252.917C192.451 247.357 201.938 241.324 206.285 238.451C210.632 235.578 219.277 230.42 219.277 230.42V230.416Z" fill="white"/>
<path d="M231.673 224.345C216.386 230.522 189.824 247.974 190.752 254.15C191.679 260.327 200.634 256.156 222.101 247.201C243.565 238.246 286.189 222.339 286.189 222.339C286.189 222.339 290.36 209.83 286.806 192.379C283.256 174.927 271.671 164.89 271.671 164.89" stroke="black" stroke-width="1.2" stroke-linecap="round" stroke-linejoin="round"/>
<path d="M294.143 71.1798L291.594 69.7731L291.488 70.5487L168.117 44.0328C166.277 43.6379 164.472 44.8261 164.109 46.6735L146.499 136.177C146.174 137.827 147.119 139.463 148.709 140.01L266.009 180.184C267.874 180.822 269.883 179.729 270.363 177.818L296.114 75.1038C296.526 73.4608 295.652 71.8109 294.143 71.1833V71.1798Z" fill="#45DAA2" stroke="black" stroke-width="1.2" stroke-linecap="round" stroke-linejoin="round"/>
<path d="M293.371 73.6055L267.62 176.32C267.141 178.231 265.131 179.324 263.266 178.685L145.966 138.511C144.376 137.965 143.431 136.329 143.756 134.679L161.366 45.1752C161.729 43.3278 163.534 42.1396 165.375 42.5345L290.815 69.4982C292.676 69.8966 293.833 71.7616 293.371 73.6055V73.6055Z" fill="black" stroke="black" stroke-width="1.2" stroke-linecap="round" stroke-linejoin="round"/>
<path d="M289.5 73.2246L263.89 175.368L147.609 135.352L165.159 46.1587L289.5 73.2246Z" fill="white"/>
<path d="M207.124 155.871L211.475 134.365C211.954 131.989 214.376 130.536 216.7 131.234L256.052 143.02C258.136 143.644 259.377 145.777 258.887 147.896L253.373 171.782L207.128 155.868L207.124 155.871Z" fill="#45DAA2" stroke="#45DAA2" stroke-width="1.2" stroke-linecap="round" stroke-linejoin="round"/>
<path d="M206.162 131.866L201.681 153.996L155.711 138.176L159.508 118.518C159.973 116.11 162.423 114.636 164.768 115.359L203.313 127.215C205.298 127.825 206.518 129.817 206.162 131.862V131.866Z" fill="#45DAA2" stroke="#45DAA2" stroke-width="1.2" stroke-linecap="round" stroke-linejoin="round"/>
<path d="M222.055 160.969C222.055 160.969 224.276 154.377 233.76 156.732C242.528 158.907 240.36 167.672 240.36 167.672L222.055 160.969V160.969Z" fill="white"/>
<path d="M233.281 154.979L232.505 156.883L235.488 157.828L236.133 155.762L233.281 154.979Z" fill="white"/>
<path d="M233.644 151.126L232.801 152.328L232.184 152.166C232.184 152.166 234.522 149.028 230.689 145.302C226.857 141.575 219.517 139.435 218.025 146.902C216.534 154.369 227.971 155.385 229.653 154.733C230.636 154.348 231.511 153.83 231.757 153.393L232.551 153.506C232.614 154.285 233.281 154.979 233.281 154.979L236.242 155.889C236.242 155.889 236.922 156.125 237.25 155.702C237.575 155.279 238.223 152.811 238.029 152.356C237.836 151.902 234.359 150.604 233.644 151.122V151.126Z" fill="white"/>
<path d="M164.539 141.215L166.622 131.136L195.173 139.988L192.906 150.978L164.539 141.215Z" fill="#45DAA2" stroke="white" stroke-width="1.2" stroke-linecap="round" stroke-linejoin="round"/>
<path d="M177.446 134.492L175.323 144.928L182.336 147.339L184.585 136.706L177.446 134.492Z" fill="white"/>
<path d="M180.964 135.585C180.964 135.585 182.396 129.221 179.854 126.905C177.316 124.589 172.912 124.127 172.062 127.6C171.213 131.076 178.934 135.321 178.934 135.321L180.961 135.585H180.964Z" stroke="white" stroke-width="1.2" stroke-linecap="round" stroke-linejoin="round"/>
<path d="M180.964 135.585C181.176 135.243 182.487 127.688 189.824 130.463C197.161 133.237 184.585 136.706 184.585 136.706L180.968 135.585H180.964Z" stroke="white" stroke-width="1.2" stroke-linecap="round" stroke-linejoin="round"/>
<path d="M289.5 73.2246L263.89 175.368L147.609 135.352L165.159 46.1587L289.5 73.2246Z" stroke="black" stroke-width="1.2" stroke-linecap="round" stroke-linejoin="round"/>
<path d="M260.445 183.226L147.859 144.047C146.297 143.504 144.595 143.539 143.057 144.149L58.193 177.804L53.8248 174.807C53.6521 176.968 53.5287 178.326 53.6027 179.863C53.6345 180.508 53.8883 181.802 54.7344 182.204L179.113 246.433C181.472 247.653 184.324 247.403 186.44 245.795L263.597 187.115C264.087 186.741 264.295 186.188 264.26 185.655V179.948L260.438 183.226H260.445Z" fill="#45DAA2" stroke="black" stroke-width="1.2" stroke-linecap="round" stroke-linejoin="round"/>
<path d="M147.859 138.31L263.128 178.424C264.408 178.869 264.676 180.561 263.597 181.382L186.44 240.062C184.324 241.67 181.476 241.917 179.114 240.7L54.738 176.468C53.4441 175.798 53.5358 173.915 54.8896 173.379L143.057 138.412C144.595 137.803 146.297 137.767 147.859 138.31Z" fill="white" stroke="black" stroke-width="1.2" stroke-linecap="round" stroke-linejoin="round"/>
<path d="M183.26 241.465V247.128L185.456 246.415L255.376 193.366C255.376 193.366 264.041 187.097 264.151 186.375C264.26 185.652 264.151 180.649 264.151 180.649L187.198 239.361L183.26 241.462V241.465Z" fill="black"/>
<path d="M217.412 82.719L211.658 108.258L164.539 95.7178L169.788 72.3538C170.282 70.1644 172.447 68.7824 174.64 69.2583L214.292 77.8325C216.513 78.312 217.913 80.5049 217.416 82.7225L217.412 82.719Z" fill="#45DAA2" stroke="#45DAA2" stroke-width="1.2" stroke-linecap="round" stroke-linejoin="round"/>
<path d="M139.126 148.172L239.094 186.163C241.721 187.098 240.808 188.37 239.884 189.023L204.177 214.745C202.601 216.06 201.24 216.381 199.601 215.627L94.4608 167.185C93.3784 166.684 93.4172 165.133 94.5207 164.689L135.477 148.207C136.644 147.738 137.949 147.724 139.126 148.172V148.172Z" fill="#45DAA2"/>
<path d="M211.658 108.258L210.178 114.83C209.656 117.129 207.311 118.514 205.048 117.858L166.037 106.534C163.964 105.931 162.713 103.82 163.185 101.715L164.528 95.7354L164.655 95.3511L211.655 108.258H211.658Z" fill="white" stroke="#45DAA2" stroke-width="1.2" stroke-linecap="round" stroke-linejoin="round"/>
<path d="M147.27 144.286L248.518 180.959C249.608 181.238 250.189 182.133 249.318 182.676L245.842 184.83C244.866 185.44 244.298 185.469 243.124 185.017L142.987 147.142C141.961 146.754 141.919 145.319 142.92 144.871L144.556 144.138C145.43 143.747 146.012 143.796 147.274 144.283L147.27 144.286Z" fill="#45DAA2"/>
<path d="M168.019 100.061L186.581 105.131" stroke="#45DAA2" stroke-width="1.2" stroke-linecap="round" stroke-linejoin="round"/>
<path d="M167.243 102.984L175.761 105.36" stroke="#45DAA2" stroke-width="1.2" stroke-linecap="round" stroke-linejoin="round"/>
<path d="M260.308 189.699C250.271 193.771 216.573 204.323 211.75 208.907C206.927 213.49 215.879 216.599 225.5 216.092C235.357 215.573 246.805 216.585 248.815 218.285" fill="#45DAA2"/>
<path d="M213.784 214.646C214.017 207.958 250.891 193.165 250.891 193.165C250.891 193.165 217.821 204.821 212.413 208.367C207.005 211.914 213.784 214.646 213.784 214.646V214.646Z" fill="white"/>
<path d="M260.308 189.699C250.271 193.771 216.573 204.323 211.75 208.907C206.927 213.49 215.879 216.599 225.5 216.092C235.357 215.573 246.805 216.585 248.815 218.285" stroke="black" stroke-width="1.2" stroke-linecap="round" stroke-linejoin="round"/>
<path d="M287.561 196.817C287.561 196.817 286.686 180.367 300.006 174.941C316.759 168.119 318.61 183.67 318.61 183.67" stroke="black" stroke-width="1.2" stroke-linecap="round" stroke-linejoin="round"/>
<path d="M203.742 109.115L196.236 107.076C194.849 106.699 193.42 107.517 193.044 108.903C192.667 110.289 193.486 111.718 194.873 112.095L202.378 114.134C203.765 114.51 205.194 113.692 205.571 112.307C205.947 110.921 205.128 109.492 203.742 109.115Z" fill="#45DAA2"/>
<path d="M304.783 196.817C308.231 196.817 311.027 194.022 311.027 190.574C311.027 187.125 308.231 184.33 304.783 184.33C301.335 184.33 298.539 187.125 298.539 190.574C298.539 194.022 301.335 196.817 304.783 196.817Z" fill="#45DAA2"/>
<path d="M199.625 92.1111C198.79 95.2947 198.381 95.9645 197.528 99.9661C197.478 100.202 198.222 100.396 198.536 100.47C199.364 100.664 199.509 99.8532 199.636 99.4125C200.856 95.2982 202.83 91.0534 206.127 87.7887C208.009 85.9201 202.749 84.3513 198.896 81.3298C194.686 83.4452 194.013 84.5487 189.747 87.9861C188.389 89.0791 184.984 90.1121 182.914 90.1226C179.311 90.1403 176.519 90.5175 172.503 90.856C171.005 90.9829 170.973 92.4002 172.496 92.9784C177.284 94.7905 182.131 96.5216 187.057 97.9776C189.56 98.718 192.151 97.336 193.279 96.0527C194.961 94.1489 195.469 93.6588 197.39 91.9277C198.384 91.0358 199.22 91.0745 199.625 92.1111V92.1111Z" fill="white"/>
<path d="M271.861 93.7011L264.852 122.417L217.528 109.82L223.416 83.6144C223.899 81.4426 226.039 80.0606 228.218 80.5013L268.702 88.7265C270.98 89.1848 272.415 91.4482 271.861 93.6975V93.7011Z" fill="#45DAA2" stroke="#45DAA2" stroke-width="1.2" stroke-linecap="round" stroke-linejoin="round"/>
<path d="M264.852 122.421L263.001 130.004C262.455 132.257 260.139 133.6 257.91 132.966L218.79 121.782C216.707 121.183 215.448 119.068 215.924 116.956L217.528 109.827L264.852 122.424V122.421Z" fill="white" stroke="#45DAA2" stroke-width="1.2" stroke-linecap="round" stroke-linejoin="round"/>
<path d="M221.311 114.911L239.87 119.981" stroke="#45DAA2" stroke-width="1.2" stroke-linecap="round" stroke-linejoin="round"/>
<path d="M220.532 117.834L229.05 120.21" stroke="#45DAA2" stroke-width="1.2" stroke-linecap="round" stroke-linejoin="round"/>
<path d="M257.43 124.222L249.924 122.182C248.537 121.806 247.108 122.624 246.732 124.009C246.355 125.395 247.174 126.824 248.561 127.201L256.066 129.24C257.453 129.617 258.882 128.799 259.259 127.413C259.635 126.027 258.816 124.598 257.43 124.222Z" fill="#45DAA2"/>
<path d="M244.27 112.316C250.894 112.316 256.264 106.946 256.264 100.322C256.264 93.698 250.894 88.3281 244.27 88.3281C237.646 88.3281 232.276 93.698 232.276 100.322C232.276 106.946 237.646 112.316 244.27 112.316Z" fill="white"/>
<path d="M246.851 88.6101L241.689 112.034" stroke="#45DAA2" stroke-width="1.2" stroke-linecap="round" stroke-linejoin="round"/>
<path d="M249.033 89.0896C253.345 96.444 248.3 110.839 243.872 112.517" stroke="#45DAA2" stroke-width="1.2" stroke-linecap="round" stroke-linejoin="round"/>
<path d="M252.636 89.8865C256.948 97.2408 251.903 111.636 247.475 113.314" stroke="#45DAA2" stroke-width="1.2" stroke-linecap="round" stroke-linejoin="round"/>
<path d="M244.566 88.106C239.267 91.3636 234.98 107.906 239.405 111.533" stroke="#45DAA2" stroke-width="1.2" stroke-linecap="round" stroke-linejoin="round"/>
<path d="M241.146 87.3516C235.847 90.6092 231.56 107.151 235.985 110.779" stroke="#45DAA2" stroke-width="1.2" stroke-linecap="round" stroke-linejoin="round"/>
<path d="M234.472 89.0298C239.334 96.0316 254.515 97.5053 257.9 94.1912" stroke="#45DAA2" stroke-width="1.2" stroke-linecap="round" stroke-linejoin="round"/>
<path d="M230.499 107.074C235.682 103.636 252.495 106.697 253.927 112.235" stroke="#45DAA2" stroke-width="1.2" stroke-linecap="round" stroke-linejoin="round"/>
<path d="M232.554 97.7415L255.982 102.903" stroke="#45DAA2" stroke-width="1.2" stroke-linecap="round" stroke-linejoin="round"/>
<path d="M163.016 42.009L150.93 46.7509L125.292 56.8165C125.158 57.7578 125.158 58.6145 125.158 59.5523C125.158 68.9233 132.883 76.5139 142.642 76.5139C150.437 76.5139 157.058 71.8178 159.409 65.091H159.43V67.8445C159.43 77.2155 167.349 84.8131 177.108 84.8131C184.903 84.8131 191.524 79.969 193.875 73.2457H193.896V75.7947C193.896 85.1657 201.815 92.7633 211.574 92.7633C219.39 92.7633 225.69 88.0814 228.028 81.3263C228.028 82.2641 228.384 83.8859 228.525 84.8131C229.981 94.4944 236.281 100.83 246.04 100.83C253.856 100.83 260.534 96.3242 262.871 89.5692L294.21 70.3336L163.016 42.009Z" fill="white"/>
<path d="M194.034 72.7875L228.133 80.8258C228.133 80.8258 222.623 94.9493 209.398 92.64C196.174 90.3308 194.178 78.8303 194.178 78.8303L194.034 72.7839V72.7875Z" fill="#45DAA2"/>
<path d="M125.292 56.8201L159.409 64.6222C159.409 64.6222 155.312 77.4377 141.591 76.4893C127.869 75.5374 125.475 63.0886 125.356 62.1331C125.236 61.1777 125.292 56.8236 125.292 56.8236V56.8201Z" fill="#45DAA2"/>
<path d="M159.409 64.6223L193.396 48.5703L225.436 55.4875L194.034 72.7875L159.409 64.6223Z" fill="#45DAA2"/>
<path d="M228.13 80.8259L257.78 62.4717L294.21 70.3373L262.871 89.5728L228.13 80.8259Z" fill="#45DAA2"/>
<path d="M163.016 42.009L150.93 46.7509L125.292 56.8165C125.158 57.7578 125.158 58.6145 125.158 59.5523C125.158 68.9233 132.883 76.5139 142.642 76.5139C150.437 76.5139 157.058 71.8178 159.409 65.091H159.43V67.8445C159.43 77.2155 167.349 84.8131 177.108 84.8131C184.903 84.8131 191.524 79.969 193.875 73.2457H193.896V75.7947C193.896 85.1657 201.815 92.7633 211.574 92.7633C219.39 92.7633 225.69 88.0814 228.028 81.3263C228.028 82.2641 228.384 83.8859 228.525 84.8131C229.981 94.4944 236.281 100.83 246.04 100.83C253.856 100.83 260.534 96.3242 262.871 89.5692L294.21 70.3336L163.016 42.009Z" stroke="black" stroke-width="1.2" stroke-linecap="round" stroke-linejoin="round"/>
<path d="M159.409 65.0945L193.875 73.2492C193.875 73.2492 188.88 86.3079 173.765 84.1644C159.395 82.1266 159.409 65.0945 159.409 65.0945V65.0945Z" fill="black" stroke="black" stroke-width="1.2" stroke-linecap="round" stroke-linejoin="round"/>
<path d="M228.028 81.3298L262.871 89.5726C262.871 89.5726 258.002 100.777 245.314 100.322C229.223 99.744 228.028 81.3298 228.028 81.3298V81.3298Z" fill="black" stroke="black" stroke-width="1.2" stroke-linecap="round" stroke-linejoin="round"/>
<path d="M282.868 115.496L262.871 89.5728" stroke="black" stroke-width="1.2" stroke-linecap="round" stroke-linejoin="round"/>
<path d="M255.474 181.859C256.977 181.859 258.196 181.211 258.196 180.413C258.196 179.615 256.977 178.968 255.474 178.968C253.971 178.968 252.752 179.615 252.752 180.413C252.752 181.211 253.971 181.859 255.474 181.859Z" fill="#45DAA2"/>
<path d="M107.368 195.259L123.635 186.551C124.573 186.05 125.694 186.018 126.657 186.473L152.168 198.478C152.993 198.866 153.074 200.004 152.312 200.505L136.803 210.733C135.781 211.406 134.476 211.473 133.394 210.906L107.382 197.314C106.554 196.881 106.547 195.696 107.372 195.252L107.368 195.259Z" fill="#45DAA2"/>
</g>
<path d="M279.06 53.9185C254.734 29.5955 221.124 14.5483 183.997 14.5483V5.3465C183.997 3.48852 182.473 1.96194 180.616 2.00072C142.574 2.86097 108.087 18.1796 82.4386 42.6683C81.0953 43.9481 81.0953 46.0987 82.4068 47.4173L88.9186 53.9361C64.5921 78.2697 49.5484 111.879 49.5484 149.003H40.3431C38.4816 149.003 36.9586 150.526 37.0009 152.384C37.8611 190.426 53.1762 224.913 77.6649 250.561C78.9483 251.905 81.0989 251.905 82.4139 250.593L88.9362 244.085C113.27 268.411 146.879 283.459 183.997 283.459V292.66C183.997 294.518 185.523 296.041 187.381 295.999C225.426 295.142 259.909 279.824 285.558 255.339C286.905 254.055 286.901 251.905 285.59 250.59L279.078 244.067C303.405 219.734 318.448 186.128 318.448 149.007H327.657C329.515 149.007 331.042 147.48 330.999 145.622C330.139 107.581 314.824 73.0976 290.332 47.442C289.052 46.0987 286.901 46.0987 285.583 47.4138L279.06 53.922V53.9185Z" stroke="white" stroke-width="2" stroke-linecap="round" stroke-linejoin="round"/>
<path d="M283.626 116.48L279.529 111.167" stroke="#45DAA2" stroke-width="1.2" stroke-linecap="round" stroke-linejoin="round"/>
</svg>
